<svg width="18" height="18" viewBox="0 0 18 18" fill="none" xmlns="http://www.w3.org/2000/svg">
<path fill-rule="evenodd" clip-rule="evenodd" d="M8.3724 3.63464C8.3724 3.28946 8.65222 3.00964 8.9974 3.00964H17.3307C17.6759 3.00964 17.9557 3.28946 17.9557 3.63464C17.9557 3.97981 17.6759 4.25964 17.3307 4.25964H8.9974C8.65222 4.25964 8.3724 3.97981 8.3724 3.63464Z" fill="#CBD5E0"/>
<path fill-rule="evenodd" clip-rule="evenodd" d="M9.80642 1.47824C9.72992 1.55416 9.6224 1.76327 9.6224 2.5013V5.9263C9.6224 6.66434 9.72992 6.87344 9.80642 6.94936C9.88463 7.02699 10.1001 7.13463 10.8474 7.13463H15.4807C16.2281 7.13463 16.4435 7.02699 16.5217 6.94936C16.5982 6.87344 16.7057 6.66434 16.7057 5.9263V2.5013C16.7057 1.76327 16.5982 1.55416 16.5217 1.47824C16.4435 1.40061 16.2281 1.29297 15.4807 1.29297H10.8474C10.1001 1.29297 9.88463 1.40061 9.80642 1.47824ZM8.92588 0.591029C9.40183 0.118658 10.1114 0.0429688 10.8474 0.0429688H15.4807C16.2167 0.0429688 16.9263 0.118658 17.4022 0.591029C17.8799 1.06511 17.9557 1.77267 17.9557 2.5013V5.9263C17.9557 6.65493 17.8799 7.3625 17.4022 7.83658C16.9263 8.30895 16.2167 8.38463 15.4807 8.38463H10.8474C10.1114 8.38463 9.40183 8.30895 8.92588 7.83658C8.44821 7.3625 8.3724 6.65493 8.3724 5.9263V2.5013C8.3724 1.77267 8.44821 1.06511 8.92588 0.591029Z" fill="#CBD5E0"/>
<path fill-rule="evenodd" clip-rule="evenodd" d="M0.0390625 13.218C0.0390625 12.8728 0.318885 12.593 0.664062 12.593H8.9974C9.34257 12.593 9.6224 12.8728 9.6224 13.218C9.6224 13.5631 9.34257 13.843 8.9974 13.843H0.664062C0.318885 13.843 0.0390625 13.5631 0.0390625 13.218Z" fill="#CBD5E0"/>
<path fill-rule="evenodd" clip-rule="evenodd" d="M1.47308 11.0616C1.39659 11.1375 1.28906 11.3466 1.28906 12.0846V15.5096C1.28906 16.2477 1.39659 16.4568 1.47308 16.5327C1.5513 16.6103 1.76674 16.718 2.51406 16.718H7.1474C7.89472 16.718 8.11016 16.6103 8.18838 16.5327C8.26487 16.4568 8.3724 16.2477 8.3724 15.5096V12.0846C8.3724 11.3466 8.26487 11.1375 8.18838 11.0616C8.11016 10.9839 7.89472 10.8763 7.1474 10.8763H2.51406C1.76674 10.8763 1.5513 10.9839 1.47308 11.0616ZM0.592542 10.1744C1.06849 9.70199 1.77805 9.6263 2.51406 9.6263H7.1474C7.88341 9.6263 8.59297 9.70199 9.06892 10.1744C9.54659 10.6484 9.6224 11.356 9.6224 12.0846V15.5096C9.6224 16.2383 9.54659 16.9458 9.06892 17.4199C8.59297 17.8923 7.88341 17.968 7.1474 17.968H2.51406C1.77805 17.968 1.06849 17.8923 0.592542 17.4199C0.114872 16.9458 0.0390625 16.2383 0.0390625 15.5096V12.0846C0.0390625 11.356 0.114872 10.6484 0.592542 10.1744Z" fill="#CBD5E0"/>
<path fill-rule="evenodd" clip-rule="evenodd" d="M17.3307 10.8763C17.6759 10.8763 17.9557 11.1561 17.9557 11.5013C17.9557 15.0715 15.0676 17.9596 11.4974 17.9596C11.2722 17.9596 11.0645 17.8385 10.9535 17.6426C10.8426 17.4466 10.8456 17.2062 10.9615 17.0131L11.8365 15.5547C12.014 15.2588 12.398 15.1628 12.6939 15.3404C12.9899 15.518 13.0859 15.9019 12.9083 16.1979L12.6822 16.5747C14.9898 16.0393 16.7057 13.9735 16.7057 11.5013C16.7057 11.1561 16.9856 10.8763 17.3307 10.8763Z" fill="#CBD5E0"/>
<path fill-rule="evenodd" clip-rule="evenodd" d="M5.31257 1.42791C3.00498 1.96327 1.28906 4.02915 1.28906 6.5013C1.28906 6.84648 1.00924 7.1263 0.664062 7.1263C0.318885 7.1263 0.0390625 6.84648 0.0390625 6.5013C0.0390625 2.93112 2.92722 0.0429688 6.4974 0.0429688C6.72257 0.0429688 6.93033 0.164088 7.04127 0.360031C7.15221 0.555973 7.14918 0.796444 7.03333 0.989526L6.15834 2.44786C5.98075 2.74385 5.59684 2.83983 5.30085 2.66224C5.00486 2.48465 4.90888 2.10073 5.08647 1.80475L5.31257 1.42791Z" fill="#CBD5E0"/>
</svg>
