<svg width="108" height="40" viewBox="0 0 108 40" fill="none" xmlns="http://www.w3.org/2000/svg">
<path opacity="0.59" d="M7.63919 13.6602H22.8626C22.8626 15.724 22.4184 17.7032 21.6276 19.1626C20.8368 20.6219 19.7643 21.4417 18.6459 21.4417H7.65271C7.09369 21.4417 6.55757 21.0319 6.16228 20.3025C5.76699 19.573 5.54492 18.5836 5.54492 17.552C5.54492 16.5202 5.76696 15.5306 6.16221 14.8008C6.55747 14.071 7.09359 13.6607 7.65271 13.6602H7.63919Z" fill="#8DC63F"/>
<path opacity="0.59" d="M22.682 3.39648L19.6387 11.1781H23.6356C24.7539 11.1781 25.8265 10.3582 26.6172 8.8989C27.408 7.43957 27.8523 5.46029 27.8523 3.39648H22.682Z" fill="#8DC63F"/>
<path opacity="0.59" d="M14.4811 11.0346L17.4624 3.39649H7.67188C9.07722 3.39528 10.4557 4.10714 11.6566 5.45423C12.8575 6.80131 13.8346 8.73177 14.4811 11.0346Z" fill="#8DC63F"/>
<path d="M14.5134 11.1783L14.4807 11.0596L14.4355 11.1783H14.5134Z" fill="#7DC242"/>
<path d="M17.5664 3.19495L17.4627 3.40296L14.4814 11.0348L14.5141 11.1533H14.4363L13.4602 13.6598L10.2917 21.6931C9.91946 22.4993 9.44418 23.1216 8.90885 23.5037C8.37353 23.8858 7.79504 24.0156 7.22569 23.8815C6.65634 23.7474 6.11408 23.3535 5.64794 22.7355C5.1818 22.1174 4.80648 21.2948 4.55591 20.3418C4.30533 19.3889 4.18741 18.3357 4.2128 17.2775C4.23819 16.2193 4.40609 15.1895 4.70132 14.2812C4.99656 13.3728 5.40981 12.6146 5.90373 12.075C6.39764 11.5354 6.95664 11.2315 7.53019 11.1908H14.4363L14.4814 11.0701C13.8375 8.76076 12.8616 6.82309 11.6605 5.46956C10.4594 4.11602 9.07954 3.39886 7.67221 3.39672H7.21346C5.93564 3.54062 4.69771 4.27287 3.61267 5.52665C2.52763 6.78042 1.63005 8.51577 1.00185 10.5743C0.373663 12.6328 0.0348766 14.9489 0.0164216 17.3111C-0.00203337 19.6734 0.300431 22.0065 0.896204 24.0976C1.49198 26.1886 2.36208 27.971 3.42708 29.282C4.49208 30.593 5.71806 31.3908 6.9931 31.6026C8.26813 31.8144 9.55161 31.4335 10.7264 30.4946C11.9011 29.5557 12.9297 28.0888 13.7183 26.2277L14.0035 25.5226L18.6598 13.6661L19.6359 11.1845L22.6792 3.40296L23.4491 1.49344C22.5463 0.281964 21.4199 -0.219254 20.3171 0.0997218C19.2143 0.418697 18.2251 1.53182 17.5664 3.19495Z" fill="#7DC242"/>
<path d="M52.5664 8.02695V10.9391C52.9342 10.2551 53.3743 9.71773 53.8592 9.36028C54.376 8.98318 54.9266 8.78912 55.4823 8.78826C58.4573 8.78826 59.9448 12.0061 59.9448 18.4419V31.5693C58.9685 31.5567 58.0343 30.8338 57.3453 29.5574C56.6562 28.2811 56.2678 26.5546 56.2646 24.7529V18.8995C56.3089 17.8397 56.1359 16.7878 55.7799 15.9521C55.6035 15.6149 55.3897 15.3518 55.1532 15.181C54.9166 15.0101 54.6629 14.9354 54.4093 14.9619C54.1596 14.9397 53.9103 15.0166 53.6781 15.1874C53.446 15.3582 53.2364 15.619 53.0635 15.9521C52.7004 16.7819 52.5226 17.8361 52.5664 18.8995V31.5735C52.0814 31.5784 51.6006 31.407 51.1515 31.0689C50.7024 30.7309 50.2938 30.2329 49.949 29.6034C49.6042 28.9739 49.33 28.2252 49.142 27.4C48.9541 26.5749 48.856 25.6896 48.8535 24.7945V1.20219C49.3393 1.19891 49.8207 1.37224 50.2702 1.71229C50.7197 2.05234 51.1285 2.55245 51.4733 3.18406C51.8181 3.81568 52.0921 4.56643 52.2796 5.39344C52.4672 6.22046 52.5646 7.10755 52.5664 8.00407V8.02695Z" fill="#7DC242"/>
<path d="M75.084 20.4039C75.0794 18.3139 75.4078 16.2675 76.0286 14.5194C76.6433 12.7304 77.5076 11.2797 78.5309 10.3197C79.4355 9.43654 80.4319 8.9201 81.4534 8.80495C82.4749 8.6898 83.498 8.97859 84.4541 9.65199C85.2699 10.2005 86.0194 11.0394 86.66 12.1211C87.2934 13.1755 87.8058 14.4536 88.167 15.8798C88.5301 17.3439 88.7148 18.9373 88.708 20.5475C88.7145 22.1514 88.5266 23.7377 88.158 25.1902C87.8036 26.613 87.2954 27.8872 86.6645 28.9344C86.0301 30.0161 85.2846 30.8521 84.4721 31.393C82.8135 32.5059 80.9955 32.5059 79.3368 31.393L79.0719 31.185L78.8003 30.977V40.0004C77.818 39.9938 76.8772 39.2689 76.184 37.9846C75.4908 36.7003 75.1018 34.9613 75.1021 33.1486L75.084 20.4039ZM78.7834 20.5475C78.7749 21.5235 78.9257 22.4816 79.2162 23.2973C79.4985 24.1535 79.8946 24.8624 80.367 25.3566C80.8282 25.8523 81.3528 26.1115 81.8864 26.1075C82.4285 26.1144 82.9618 25.8553 83.4318 25.3566C83.8986 24.876 84.2924 24.1864 84.577 23.3514C84.864 22.5343 85.0146 21.5795 85.0098 20.6057C85.012 19.8658 84.9303 19.1333 84.77 18.4552C84.6096 17.777 84.3742 17.1683 84.0788 16.6681C83.5 15.6128 82.7192 15.0209 81.9056 15.0209C81.092 15.0209 80.3112 15.6128 79.7324 16.6681C79.4344 17.1631 79.1963 17.7685 79.0337 18.4449C78.8712 19.1212 78.7878 19.8533 78.789 20.5932L78.7834 20.5475Z" fill="#7DC242"/>
<path d="M96.068 8.80274C95.0646 8.80088 94.0754 9.23814 93.1814 10.0786C92.2874 10.9191 91.5142 12.1389 90.9252 13.6378C90.3362 15.1367 89.9482 16.872 89.7931 18.7013C89.638 20.5305 89.7201 22.4016 90.0328 24.1609C90.3456 25.9202 90.8799 27.5176 91.592 28.8219C92.3041 30.1262 93.1737 31.1003 94.1293 31.6641C95.085 32.228 96.0995 32.3656 97.0895 32.0656C98.0796 31.7656 99.017 31.0366 99.8248 29.9385C100.137 30.6505 100.533 31.2238 100.981 31.6162C101.43 32.0087 101.921 32.2101 102.417 32.2058V20.5115C102.417 18.9732 102.253 17.45 101.934 16.0288C101.615 14.6077 101.147 13.3166 100.557 12.2292C99.9677 11.1419 99.2677 10.2796 98.4974 9.69163C97.7271 9.1037 96.9015 8.80165 96.068 8.80274ZM96.068 26.0487C95.4732 26.0483 94.8919 25.7225 94.3975 25.1124C93.9031 24.5024 93.5178 23.6355 93.2904 22.6214C93.063 21.6073 93.0036 20.4915 93.1197 19.4151C93.2359 18.3387 93.5224 17.35 93.943 16.5741C94.3636 15.7982 94.8995 15.2698 95.4828 15.0559C96.0661 14.8419 96.6707 14.9519 97.2202 15.372C97.7696 15.7921 98.2392 16.5034 98.5696 17.416C98.9 18.3286 99.0763 19.4015 99.0763 20.499V20.5115C99.0763 21.2389 98.9987 21.9591 98.8478 22.631C98.697 23.3029 98.4759 23.9134 98.1971 24.4276C97.9184 24.9418 97.5875 25.3497 97.2233 25.6278C96.8591 25.906 96.4688 26.049 96.0747 26.0487H96.068Z" fill="#7DC242"/>
<path d="M67.5228 8.80276C66.5192 8.79925 65.5296 9.2351 64.635 10.0745C63.7405 10.9139 62.9666 12.1329 62.3769 13.6315C61.7872 15.13 61.3986 16.8653 61.2429 18.6948C61.0871 20.5244 61.1688 22.396 61.4812 24.156C61.7936 25.9159 62.3277 27.5141 63.0397 28.8191C63.7518 30.1242 64.6214 31.0989 65.5772 31.6633C66.533 32.2277 67.5477 32.3657 68.5381 32.0658C69.5284 31.766 70.466 31.0369 71.274 29.9385C71.5869 30.6471 71.9814 31.2182 72.4289 31.6104C72.8763 32.0025 73.3655 32.2059 73.8608 32.2058V20.5115C73.8608 17.4083 73.1933 14.4321 72.0049 12.2366C70.8165 10.0411 69.2044 8.80606 67.5228 8.80276ZM67.5228 26.0487C66.928 26.0512 66.3462 25.7281 65.8509 25.1204C65.3556 24.5126 64.9691 23.6475 64.7403 22.6344C64.5114 21.6212 64.4505 20.5056 64.5653 19.4286C64.68 18.3516 64.9652 17.3616 65.3848 16.5837C65.8044 15.8058 66.3396 15.2751 66.9227 15.0585C67.5058 14.8419 68.1106 14.9493 68.6606 15.3671C69.2106 15.7848 69.6812 16.4942 70.0127 17.4055C70.3443 18.3167 70.522 19.389 70.5233 20.4866V20.5115C70.5212 21.9789 70.2044 23.3851 69.6422 24.4227C69.0799 25.4603 68.3179 26.0449 67.5228 26.0487Z" fill="#7DC242"/>
<path d="M41.8499 25.1174C41.1058 25.1104 40.3741 24.7649 39.7195 24.1115C39.065 23.4582 38.5078 22.5171 38.0974 21.3716C37.6869 20.2261 37.4358 18.9116 37.3663 17.5443C37.2968 16.1771 37.411 14.7992 37.6988 13.5329C37.9866 12.2665 38.4392 11.1505 39.0164 10.2839C39.5937 9.41725 40.2778 8.82658 41.0083 8.5642C41.7387 8.30181 42.4929 8.37579 43.2042 8.77959C43.9154 9.18339 44.5618 9.90455 45.086 10.8792L47.7236 6.10754C46.5817 3.95895 45.1202 2.4835 43.5239 1.86778C41.9276 1.25205 40.2683 1.5237 38.7556 2.64837C37.243 3.77305 35.9451 5.70023 35.026 8.18621C34.1069 10.6722 33.6079 13.6053 33.5922 16.6146C33.5764 19.6239 34.0446 22.5743 34.9375 25.0926C35.8303 27.6109 37.1078 29.584 38.6084 30.7625C40.1089 31.9409 41.7651 32.2717 43.3676 31.713C44.97 31.1544 46.4467 29.7314 47.6108 27.6239L47.6762 27.5053L45.086 22.7316C44.6586 23.5036 44.1526 24.1119 43.5972 24.5214C43.0418 24.9309 42.448 25.1334 41.8499 25.1174Z" fill="#7DC242"/>
<path d="M104.986 8.28924V5.12751H104.34V4.73438H105.821V5.12751H105.174V8.28924H104.986Z" fill="#7DC242"/>
<path d="M108 8.28881H107.775V5.54518L107.16 8.26593H106.959L106.345 5.54518V8.28881H106.119V4.70898H106.404L107.051 7.68142L107.697 4.70898H108.002L108 8.28881Z" fill="#7DC242"/>
</svg>
