<svg width="21" height="22" viewBox="0 0 21 22" fill="none" xmlns="http://www.w3.org/2000/svg">
<path d="M18.3487 0.916016H15.7763C15.015 0.916016 14.455 1.24602 14.2012 1.83268C14.0612 2.09852 14 2.41018 14 2.77685V5.47185C14 6.63602 14.665 7.33268 15.7763 7.33268H18.3487C18.6987 7.33268 18.9963 7.26852 19.25 7.12185C19.81 6.85602 20.125 6.26935 20.125 5.47185V2.77685C20.125 1.61268 19.46 0.916016 18.3487 0.916016ZM19.1712 4.51852C19.0837 4.61018 18.9525 4.67435 18.8125 4.68352H17.5788V5.15102L17.5875 5.95768C17.5788 6.11352 17.5262 6.24185 17.4212 6.35185C17.3337 6.44352 17.2025 6.50768 17.0625 6.50768C16.7738 6.50768 16.5375 6.26018 16.5375 5.95768V4.67435L15.3125 4.68352C15.0237 4.68352 14.7875 4.42685 14.7875 4.12435C14.7875 3.82185 15.0237 3.57435 15.3125 3.57435L16.0825 3.58352H16.5375V2.30018C16.5375 1.99768 16.7738 1.74102 17.0625 1.74102C17.3512 1.74102 17.5875 1.99768 17.5875 2.30018L17.5788 2.95102V3.57435H18.8125C19.1013 3.57435 19.3375 3.82185 19.3375 4.12435C19.3288 4.28018 19.2675 4.40852 19.1712 4.51852Z" fill="#3636F0"/>
<path d="M7.87547 9.51568C9.0256 9.51568 9.95797 8.53891 9.95797 7.33401C9.95797 6.12911 9.0256 5.15234 7.87547 5.15234C6.72534 5.15234 5.79297 6.12911 5.79297 7.33401C5.79297 8.53891 6.72534 9.51568 7.87547 9.51568Z" fill="#3636F0"/>
<path d="M18.3487 7.33398H17.9375V11.5598L17.8238 11.459C17.1413 10.8448 16.0387 10.8448 15.3562 11.459L11.7163 14.7315C11.0338 15.3456 9.93125 15.3456 9.24875 14.7315L8.95125 14.4748C8.33 13.9065 7.34125 13.8515 6.64125 14.3465L3.36875 16.6473C3.17625 16.134 3.0625 15.5382 3.0625 14.8415V7.15982C3.0625 4.57482 4.36625 3.20898 6.83375 3.20898H14V2.77815C14 2.41148 14.0612 2.09982 14.2013 1.83398H6.83375C3.64875 1.83398 1.75 3.82315 1.75 7.15982V14.8415C1.75 15.8407 1.91625 16.7115 2.24 17.4448C2.9925 19.1865 4.6025 20.1673 6.83375 20.1673H14.1663C17.3513 20.1673 19.25 18.1782 19.25 14.8415V7.12315C18.9963 7.26982 18.6987 7.33398 18.3487 7.33398Z" fill="#3636F0"/>
</svg>
