<svg width="96" height="40" viewBox="0 0 96 40" fill="none" xmlns="http://www.w3.org/2000/svg">
<path fill-rule="evenodd" clip-rule="evenodd" d="M50.3478 12.6651L46.3934 13.3741V10.6958L50.3478 10V12.6651ZM34.2783 11.5229L30.4343 12.2056L30.4185 22.7216C30.4185 24.6646 32.1673 26.0957 34.4989 26.0957C35.7908 26.0957 36.736 25.8987 37.2559 25.6624V22.9973C36.7518 23.168 34.2626 23.7719 34.2626 21.8289V17.1682H37.2559V14.3718H34.2626L34.2783 11.5229ZM24.9675 16.9975C24.1326 16.9975 23.6284 17.1945 23.6284 17.7065C23.6284 18.2655 24.4961 18.5114 25.5724 18.8165C27.3272 19.3139 29.6368 19.9685 29.6466 22.3934C29.6466 24.7434 27.3937 26.0957 24.1168 26.0957C22.7619 26.0957 21.281 25.8725 19.8159 25.3473V22.2227C21.1392 22.8266 22.8092 23.273 24.1168 23.273C24.999 23.273 25.6292 23.0761 25.6292 22.4722C25.6292 21.8529 24.6887 21.5699 23.5532 21.2282C21.824 20.7078 19.6426 20.0513 19.6426 17.864C19.6426 15.5403 21.7694 14.1486 24.9675 14.1486C26.2751 14.1486 27.567 14.3193 28.8746 14.7526V17.8378C27.6773 17.2995 26.1649 16.9975 24.9675 16.9975ZM70.6708 14.1486C74.4046 14.1486 76.3581 16.8006 76.3581 20.1615C76.3581 20.343 76.3477 20.6464 76.3388 20.9036V20.9038V20.9039L76.3388 20.9045C76.3323 21.0936 76.3266 21.2577 76.3266 21.33H68.6228C68.7961 22.8792 70.1509 23.3255 71.6791 23.3255C73.2388 23.3255 74.4676 23.0498 75.5389 22.6035V25.2292C74.4676 25.7281 73.0497 26.0825 71.175 26.0825C67.3309 26.0825 64.6527 24.087 64.6527 20.1353C64.6527 16.8006 66.9213 14.1486 70.6708 14.1486ZM70.6551 16.8137C69.6625 16.8137 68.5755 17.4308 68.5755 18.9143H72.6401C72.6401 17.4308 71.6161 16.8137 70.6551 16.8137ZM42.1555 15.3433L41.9034 14.3718H38.5005V25.8594H42.4391V18.0741C43.3686 17.0632 44.944 17.247 45.4324 17.3914V14.3718C44.9283 14.2143 43.085 13.9255 42.1555 15.3433ZM50.3478 14.3718H46.3934V25.8594H50.3478V14.3718ZM58.5715 14.1486C57.0276 14.1486 56.0351 14.7526 55.4837 15.1727L55.2789 14.3587H51.8129V29.6667L55.7515 28.9708L55.7672 25.2554C56.3344 25.5968 57.1694 26.0825 58.5557 26.0825C61.3758 26.0825 63.9437 24.192 63.9437 20.0303C63.928 16.223 61.3285 14.1486 58.5715 14.1486ZM57.6262 23.1942C56.6967 23.1942 56.1453 22.9185 55.7672 22.5772L55.7515 17.7065C56.1611 17.3258 56.7282 17.0632 57.6262 17.0632C59.0599 17.0632 60.0524 18.4023 60.0524 20.1222C60.0524 21.8814 59.0756 23.1942 57.6262 23.1942Z" fill="#4E4EF1"/>
</svg>
