<svg width="318" height="199" viewBox="0 0 318 199" fill="none" xmlns="http://www.w3.org/2000/svg">
<g clip-path="url(#clip0_17026_389172)">
<path d="M318.001 114H114.984V4H318.001V114Z" fill="white"/>
<path d="M318 115.242H114.586V2.84375H318V115.242ZM116.14 113.745H316.445V4.34062H116.14V113.745Z" fill="#CACACA"/>
<path d="M219.398 82.3881C231.307 82.3881 240.96 73.0907 240.96 61.6218C240.96 50.1529 231.307 40.8555 219.398 40.8555C207.49 40.8555 197.836 50.1529 197.836 61.6218C197.836 73.0907 207.49 82.3881 219.398 82.3881Z" fill="#6C63FF"/>
<path d="M223.531 63.0609C221.784 61.1309 220.134 58.0173 219.168 55.5078C218.202 58.0173 216.552 61.1309 214.805 63.0609L218.709 61.7006V70.0884H219.626V61.7006L223.531 63.0609Z" fill="white"/>
<path d="M224.303 7.56933H187.141V0.5H224.303L227.971 4.03485L224.303 7.56933Z" fill="#CACACA"/>
<path d="M187.603 7.56933H150.441V0.5H187.603L191.272 4.03485L187.603 7.56933Z" fill="#3F3D56"/>
<path d="M151.362 7.56933H114.199V0.5H151.362L155.03 4.03485L151.362 7.56933Z" fill="#6C63FF"/>
<path d="M6.51562 197.85L6.63037 197.356C6.6558 197.247 9.25402 186.426 17.8223 180.37C26.391 174.313 37.8884 175.17 38.0033 175.179L38.5274 175.222L38.4126 175.716C38.3872 175.825 35.7889 186.645 27.2207 192.702C18.652 198.759 7.15462 197.902 7.03971 197.892L6.51562 197.85ZM18.3653 181.082C11.1207 186.203 8.28089 194.86 7.66207 197.039C10.0074 197.123 19.4402 197.106 26.6778 191.989C33.9145 186.874 36.76 178.213 37.3809 176.033C35.0342 175.949 25.6024 175.967 18.3653 181.082Z" fill="#F0F0F0"/>
<path d="M21.6061 183.61C17.4569 192.983 7.20985 197.755 7.20985 197.755C7.20985 197.755 3.68988 187.331 7.83901 177.958C11.9881 168.585 22.2353 163.812 22.2353 163.812C22.2353 163.812 25.7552 174.237 21.6061 183.61Z" fill="#F0F0F0"/>
<path d="M128.057 79.7087C127.676 79.1768 127.179 78.7317 126.6 78.4049C126.021 78.0781 125.375 77.8775 124.707 77.8172C124.039 77.7569 123.365 77.8384 122.734 78.0559C122.102 78.2735 121.527 78.6218 121.05 79.0763L111.38 75.168L107.48 80.2485L121.218 85.5831C122.064 86.304 123.155 86.701 124.284 86.6989C125.414 86.6968 126.503 86.2957 127.346 85.5716C128.19 84.8475 128.727 83.8507 128.858 82.7702C128.989 81.6896 128.704 80.6003 128.057 79.7087Z" fill="#A0616A"/>
<path d="M109.286 192.37L115.194 192.37L115.767 172.135L109.285 170.426L109.286 192.37Z" fill="#A0616A"/>
<path d="M107.781 190.512L119.415 190.512H119.416C121.382 190.512 123.267 191.264 124.658 192.603C126.048 193.942 126.829 195.758 126.829 197.652V197.884L107.782 197.885L107.781 190.512Z" fill="#2F2E41"/>
<path d="M64.9035 192.371L70.8108 192.37L73.6212 170.426L64.9023 170.426L64.9035 192.371Z" fill="#A0616A"/>
<path d="M63.3945 190.512L75.0283 190.512H75.0288C76.9951 190.512 78.8808 191.264 80.2711 192.603C81.6615 193.942 82.4426 195.758 82.4428 197.652V197.884L63.3949 197.885L63.3945 190.512Z" fill="#2F2E41"/>
<path d="M100.406 66.0273L119.927 76.6798L116.473 85.1627C116.473 85.1627 104.446 79.5808 103.656 79.9753C102.866 80.3698 100.406 66.0273 100.406 66.0273Z" fill="#575A89"/>
<path d="M78.3944 98.072L73.9442 138.788L60.5938 185.734L71.7191 187.448L103.76 122.073L97.975 86.9287L88.1847 83.5L78.3944 98.072Z" fill="#2F2E41"/>
<path d="M71.2734 97.6461C71.2734 97.6461 82.4001 103.941 86.0288 116.173C89.9144 129.271 97.0843 149.505 97.0843 149.505L106.875 187.88L118.89 184.88L104.65 97.6461L92.6342 87.7886L77.0586 86.0742L71.2734 97.6461Z" fill="#2F2E41"/>
<path d="M98.6963 30.5861C104.349 30.5861 108.932 26.1728 108.932 20.7286C108.932 15.2845 104.349 10.8711 98.6963 10.8711C93.0435 10.8711 88.4609 15.2845 88.4609 20.7286C88.4609 26.1728 93.0435 30.5861 98.6963 30.5861Z" fill="#A0616A"/>
<path d="M99.6072 39.7877C99.6072 39.7877 92.2577 32.0039 86.4725 32.0039C84.613 32.0039 71.67 45.8932 71.2631 55.9252L67.1211 100.219C67.1211 100.219 107.172 102.362 107.617 100.647C108.063 98.9328 99.6072 39.7877 99.6072 39.7877Z" fill="#575A89"/>
<path d="M93.5998 25.0386C94.4208 24.9914 95.2224 25.2586 96.0378 25.3629C97.5056 25.5056 98.9779 25.1371 100.188 24.3243C101.398 23.5114 102.265 22.308 102.633 20.932C102.685 20.5638 102.799 20.2062 102.971 19.8735C103.42 19.1676 104.442 19.033 105.285 19.1953C106.128 19.3576 106.927 19.7375 107.785 19.7809C108.451 19.7833 109.106 19.6185 109.685 19.3027C110.265 18.9868 110.748 18.531 111.089 17.98C111.756 16.8637 112.04 15.5726 111.9 14.2916L111.265 14.9338C111.006 14.4078 110.907 13.8225 110.977 13.2446C110.64 13.1583 110.286 13.1566 109.949 13.2398C109.611 13.323 109.301 13.4882 109.049 13.7197C108.489 13.7771 108.912 12.7189 108.496 12.3533C108.293 12.2335 108.052 12.19 107.818 12.2312C106.626 12.2423 105.662 11.3643 104.723 10.6576C103.096 9.43582 101.193 8.59988 99.1682 8.21736C97.8257 7.91068 96.4205 7.97627 95.1151 8.40657C94.0848 8.852 93.1549 9.48726 92.3779 10.2765C90.3798 12.127 88.6104 14.3011 87.7791 16.848C87.1033 18.9341 87.0842 21.1662 87.7241 23.2627C88.059 24.3515 89.0685 28.0803 90.5464 28.1672C92.4033 28.2762 91.2884 25.1714 93.5998 25.0386Z" fill="#2F2E41"/>
<path opacity="0.1" d="M90.9421 50.4844L80.4611 65.2888L77.1094 99.6774L90.9421 50.4844Z" fill="black"/>
<path d="M75.7299 113.036C76.1841 112.561 76.5244 111.995 76.727 111.379C76.9296 110.763 76.9895 110.112 76.9025 109.471C76.8154 108.83 76.5836 108.216 76.2233 107.671C75.863 107.125 75.3829 106.663 74.817 106.316L76.6304 96.3678L70.622 93.832L68.266 107.915C67.7236 108.87 67.5635 109.982 67.816 111.043C68.0686 112.103 68.7162 113.037 69.6363 113.669C70.5563 114.3 71.6848 114.584 72.8079 114.468C73.9309 114.351 74.9706 113.842 75.7299 113.036Z" fill="#A0616A"/>
<path d="M81.4435 36.5605L70.7374 70.0092C70.7374 70.0092 66.7611 91.3239 68.5412 94.7526C70.3213 98.1813 66.8242 104.93 66.8242 104.93L77.0596 105.787L82.0353 70.7576L90.8551 44.0705C90.8551 44.0705 94.349 34.4175 81.4435 36.5605Z" fill="#575A89"/>
<path d="M126.281 61.7306L118.207 99.0391L150.099 105.44L158.172 68.132L126.281 61.7306Z" fill="#CACACA"/>
<path d="M126.724 62.6451L118.992 98.375L149.245 104.447L156.977 68.7175L126.724 62.6451Z" fill="white"/>
<path d="M133.617 67.6265L133.391 68.6719L140.985 70.1963L141.211 69.1509L133.617 67.6265Z" fill="#E6E6E6"/>
<path d="M132.953 70.6929L132.727 71.7383L148.18 74.8402L148.406 73.7948L132.953 70.6929Z" fill="#6C63FF"/>
<path d="M132.55 73.6617L132.324 74.707L143.652 76.9807L143.878 75.9354L132.55 73.6617Z" fill="#E6E6E6"/>
<path d="M131.625 76.8218L131.398 77.8672L135.162 78.6225L135.388 77.5772L131.625 76.8218Z" fill="#E6E6E6"/>
<path d="M130.949 79.9546L130.723 81L139.889 82.8399L140.115 81.7945L130.949 79.9546Z" fill="#6C63FF"/>
<path d="M130.265 83.107L130.039 84.1523L137.634 85.6767L137.86 84.6314L130.265 83.107Z" fill="#E6E6E6"/>
<path d="M129.601 86.1773L129.375 87.2227L144.829 90.3246L145.055 89.2792L129.601 86.1773Z" fill="#6C63FF"/>
<path d="M129.203 89.1461L128.977 90.1914L140.304 92.4651L140.53 91.4198L129.203 89.1461Z" fill="#E6E6E6"/>
<path d="M128.277 92.3062L128.051 93.3516L131.814 94.1069L132.04 93.0615L128.277 92.3062Z" fill="#E6E6E6"/>
<path d="M127.597 95.439L127.371 96.4844L136.537 98.3243L136.764 97.2789L127.597 95.439Z" fill="#E6E6E6"/>
<path d="M148.43 198.498H0.38856C0.285508 198.498 0.186676 198.459 0.113806 198.389C0.0409372 198.319 0 198.223 0 198.124C0 198.025 0.0409372 197.93 0.113806 197.86C0.186676 197.789 0.285508 197.75 0.38856 197.75H148.43C148.533 197.75 148.632 197.789 148.705 197.86C148.778 197.93 148.819 198.025 148.819 198.124C148.819 198.223 148.778 198.319 148.705 198.389C148.632 198.459 148.533 198.498 148.43 198.498Z" fill="#CACACA"/>
</g>
<defs>
<clipPath id="clip0_17026_389172">
<rect width="318" height="198" fill="white" transform="translate(0 0.5)"/>
</clipPath>
</defs>
</svg>
