<svg width="36" height="36" viewBox="0 0 36 36" fill="none" xmlns="http://www.w3.org/2000/svg">
<rect x="35.1016" y="35.2578" width="35" height="35" rx="17.5" transform="rotate(-180 35.1016 35.2578)" fill="#7152F3" fill-opacity="0.05"/>
<g clip-path="url(#clip0_6_509340)">
<path d="M24.3438 18.1538H19.0312V22.3829C19.0325 23.0018 19.1758 23.6076 19.4447 24.1305C19.7136 24.6535 20.0972 25.0721 20.5512 25.3383L21.6875 26L22.8238 25.3377C23.2778 25.0715 23.6614 24.6528 23.9303 24.1299C24.1992 23.607 24.3425 23.0011 24.3438 22.3823V18.1538ZM21.6875 24.5524L21.0059 24.1555C20.7335 23.996 20.5033 23.7449 20.3419 23.4313C20.1805 23.1176 20.0945 22.7542 20.0938 22.3829V19.4615H23.2812V22.3829C23.2804 22.7541 23.1944 23.1174 23.033 23.4309C22.8716 23.7444 22.6414 23.9954 22.3691 24.1548L21.6875 24.5524ZM17.4375 18.1538H11.0625C10.7807 18.1538 10.5105 18.2916 10.3112 18.5369C10.1119 18.7821 10 19.1147 10 19.4615V22.7308C10 23.0776 10.1119 23.4102 10.3112 23.6554C10.5105 23.9007 10.7807 24.0385 11.0625 24.0385H17.4375V22.7308H11.0625V19.4615H17.4375V18.1538ZM22.75 9H20.0938C19.812 9 19.5417 9.13777 19.3424 9.38301C19.1432 9.62825 19.0312 9.96087 19.0312 10.3077V16.1923H20.0938V10.3077H22.75V16.1923H23.8125V10.3077C23.8125 9.96087 23.7006 9.62825 23.5013 9.38301C23.302 9.13777 23.0318 9 22.75 9ZM16.375 9H11.0625C10.7807 9 10.5105 9.13777 10.3112 9.38301C10.1119 9.62825 10 9.96087 10 10.3077V14.8846C10 15.2314 10.1119 15.5641 10.3112 15.8093C10.5105 16.0545 10.7807 16.1923 11.0625 16.1923H16.375C16.6568 16.1923 16.927 16.0545 17.1263 15.8093C17.3256 15.5641 17.4375 15.2314 17.4375 14.8846V10.3077C17.4375 9.96087 17.3256 9.62825 17.1263 9.38301C16.927 9.13777 16.6568 9 16.375 9ZM11.0625 14.8846V10.3077H16.375V14.8846H11.0625Z" fill="#3636F0"/>
</g>
<defs>
<clipPath id="clip0_6_509340">
<rect width="17" height="17" fill="white" transform="translate(9.10156 9.25781)"/>
</clipPath>
</defs>
</svg>
