<svg width="20" height="20" viewBox="0 0 20 20" fill="none" xmlns="http://www.w3.org/2000/svg">
<rect width="20" height="20" rx="10" fill="#3636F0"/>
<path fill-rule="evenodd" clip-rule="evenodd" d="M5.52729 5.52925C5.78764 5.2689 6.20975 5.2689 6.4701 5.52925L9.9987 9.05784L13.5273 5.52925C13.7876 5.2689 14.2098 5.2689 14.4701 5.52925C14.7305 5.7896 14.7305 6.21171 14.4701 6.47206L10.9415 10.0007L14.4701 13.5292C14.7305 13.7896 14.7305 14.2117 14.4701 14.4721C14.2098 14.7324 13.7876 14.7324 13.5273 14.4721L9.9987 10.9435L6.4701 14.4721C6.20975 14.7324 5.78764 14.7324 5.52729 14.4721C5.26694 14.2117 5.26694 13.7896 5.52729 13.5292L9.05589 10.0007L5.52729 6.47206C5.26694 6.21171 5.26694 5.7896 5.52729 5.52925Z" fill="white"/>
</svg>
