<svg width="277" height="205" viewBox="0 0 277 205" fill="none" xmlns="http://www.w3.org/2000/svg">
<g clip-path="url(#clip0_6071_208927)">
<path d="M202.264 196.681H196.752L194.129 175.426H202.264V196.681Z" fill="#9E616A"/>
<path d="M205.174 206.229H201.221L200.516 202.498L198.709 206.229H188.226C187.723 206.229 187.234 206.069 186.829 205.771C186.424 205.473 186.125 205.054 185.976 204.574C185.826 204.095 185.834 203.58 185.998 203.105C186.162 202.63 186.473 202.22 186.887 201.934L195.258 196.153V192.381L204.063 192.907L205.174 206.229Z" fill="#323B49"/>
<path d="M235.008 189.727L230.585 193.015L215.795 177.523L222.323 172.67L235.008 189.727Z" fill="#9E616A"/>
<path d="M243.04 195.653L239.869 198.011L237.076 195.438L237.853 199.51L229.44 205.765C229.037 206.065 228.549 206.228 228.046 206.23C227.544 206.233 227.054 206.075 226.647 205.779C226.241 205.483 225.94 205.066 225.788 204.587C225.636 204.108 225.641 203.593 225.803 203.117L229.07 193.484L226.819 190.457L234.199 185.625L243.04 195.653Z" fill="#323B49"/>
<path d="M208.681 87.0139C208.681 87.0139 219.138 96.0472 214.314 121.799L208.423 147.031L227.633 178.896L221.508 186.347L196.535 151.857L187.485 130.632L184.945 92.8555L208.681 87.0139Z" fill="#323B49"/>
<path d="M192.473 136.68L191.844 146.42L193.769 187.924L202.826 186.347L204.557 156.796L192.473 136.68Z" fill="#323B49"/>
<path d="M76.2389 201.679L81.1679 201.679L83.5124 182.67L76.2383 182.671L76.2389 201.679Z" fill="#FFB6B6"/>
<path d="M74.9824 200.07L76.3697 200.07L81.7861 197.867L84.689 200.069H84.6894C86.33 200.07 87.9033 200.721 89.0633 201.881C90.2234 203.041 90.8751 204.614 90.8752 206.254V206.455L74.9827 206.456L74.9824 200.07Z" fill="#323B49"/>
<path d="M95.3398 198.574L100.147 199.659L106.622 181.634L99.5268 180.032L95.3398 198.574Z" fill="#FFB6B6"/>
<path d="M94.4672 196.727L95.8204 197.032L101.589 196.077L103.935 198.864L103.936 198.865C105.536 199.226 106.927 200.208 107.803 201.595C108.679 202.982 108.968 204.66 108.607 206.26L108.563 206.456L93.0605 202.956L94.4672 196.727Z" fill="#323B49"/>
<path d="M69.9964 85.4717C67.6855 92.4402 67.9298 100.004 70.5518 108.123L71.6727 153.831C71.6727 153.831 70.0027 183.806 75.3914 194.354H83.2066L87.076 151.094L87.5619 122.058L104.317 146.555L93.6451 193.647L103.264 194.507L120.581 143.4L99.215 93.8186L69.9964 85.4717Z" fill="#323B49"/>
<path d="M160.124 65.6224C166.101 60.2365 174.993 57.5284 182.451 60.5484C174.8 64.7953 168.899 71.6111 165.791 79.7897C164.603 82.9482 163.612 86.5849 160.691 88.2758C158.874 89.328 156.613 89.3795 154.576 88.8716C152.538 88.3636 150.671 87.3453 148.829 86.3372L148.305 86.3254C150.658 78.6315 154.146 71.0083 160.124 65.6224Z" fill="#E6E6E6"/>
<path d="M182.409 60.712C175.804 61.5655 169.635 64.4783 164.78 69.0367C163.717 69.9995 162.813 71.1237 162.1 72.368C161.445 73.6025 161.133 74.9899 161.196 76.386C161.228 77.6889 161.412 79.0178 161.127 80.3058C160.971 80.963 160.678 81.5798 160.267 82.1158C159.857 82.6519 159.337 83.0951 158.743 83.4163C157.283 84.2551 155.609 84.5196 153.963 84.7213C152.136 84.9453 150.234 85.149 148.652 86.1739C148.46 86.2981 148.279 85.9935 148.47 85.8695C151.222 84.0862 154.705 84.7351 157.665 83.545C159.046 82.9896 160.268 82.0148 160.701 80.541C161.079 79.2521 160.89 77.8815 160.846 76.5626C160.765 75.2016 161.018 73.8415 161.584 72.601C162.231 71.3244 163.091 70.1672 164.126 69.179C166.421 66.9169 169.058 65.0297 171.939 63.5866C175.218 61.9213 178.758 60.8291 182.406 60.3574C182.632 60.3283 182.634 60.6831 182.409 60.712Z" fill="white"/>
<path d="M166.257 67.4767C165.603 66.5584 165.296 65.4373 165.392 64.3139C165.488 63.1904 165.981 62.1377 166.781 61.3436C166.944 61.1835 167.2 61.4286 167.037 61.5889C166.291 62.327 165.832 63.3076 165.745 64.354C165.658 65.4003 165.947 66.4434 166.562 67.2949C166.695 67.4801 166.39 67.6608 166.257 67.4767Z" fill="white"/>
<path d="M161.093 75.7275C163.363 76.1297 165.701 75.6616 167.641 74.4166C167.833 74.2931 168.015 74.5977 167.823 74.7211C165.802 76.0128 163.367 76.495 161.006 76.0714C160.781 76.0308 160.869 75.6872 161.093 75.7275Z" fill="white"/>
<path d="M175.247 62.3908C175.427 62.7988 175.704 63.156 176.056 63.4303C176.407 63.7046 176.821 63.8873 177.26 63.962C177.486 63.9997 177.397 64.3433 177.173 64.3059C176.688 64.221 176.231 64.0187 175.843 63.7165C175.454 63.4144 175.145 63.0216 174.943 62.5726C174.92 62.5318 174.914 62.484 174.925 62.4389C174.937 62.3937 174.965 62.3546 175.004 62.3294C175.045 62.3056 175.093 62.2986 175.138 62.3101C175.184 62.3216 175.223 62.3506 175.247 62.3908Z" fill="white"/>
<path d="M190.664 86.5218C190.522 86.5023 190.381 86.4827 190.237 86.4654C188.335 86.2129 186.414 86.1154 184.496 86.1738C184.347 86.1759 184.197 86.1804 184.049 86.1868C179.428 86.3768 174.883 87.4229 170.644 89.272C168.958 90.0093 167.33 90.8739 165.775 91.8581C163.628 93.2175 161.408 94.8622 159.007 95.4167C158.757 95.4773 158.504 95.5224 158.249 95.5518L148.331 86.9655C148.318 86.9347 148.303 86.906 148.291 86.8751L147.879 86.5504C147.956 86.494 148.036 86.4372 148.113 86.3808C148.157 86.3479 148.204 86.317 148.248 86.2841C148.278 86.2628 148.309 86.2416 148.335 86.2206C148.345 86.2135 148.355 86.2064 148.363 86.2015C148.389 86.1806 148.416 86.1639 148.44 86.1452C148.89 85.8264 149.343 85.5102 149.8 85.1966C149.802 85.1944 149.802 85.1944 149.806 85.194C153.26 82.7714 156.989 80.7671 160.916 79.2229C161.033 79.1784 161.153 79.1316 161.275 79.091C163.043 78.4336 164.863 77.9219 166.714 77.5608C167.729 77.3663 168.752 77.2234 169.781 77.1324C172.441 76.9026 175.119 77.0923 177.72 77.6948C182.903 78.8965 187.644 81.7423 190.453 86.1806C190.524 86.2942 190.594 86.4059 190.664 86.5218Z" fill="#E6E6E6"/>
<path d="M190.532 86.6284C184.744 83.3335 178.065 81.9459 171.443 82.6626C170.015 82.7915 168.616 83.1448 167.298 83.7094C166.032 84.3008 164.947 85.2205 164.156 86.3729C163.397 87.4326 162.744 88.6045 161.741 89.4613C161.221 89.8923 160.615 90.2085 159.965 90.3892C159.314 90.5698 158.632 90.6109 157.964 90.5097C156.294 90.3009 154.798 89.5043 153.362 88.6745C151.768 87.7531 150.127 86.7709 148.247 86.6369C148.019 86.6207 148.057 86.2682 148.285 86.2844C151.556 86.5175 153.946 89.1322 157.026 89.9636C158.463 90.3515 160.026 90.3088 161.259 89.3924C162.337 88.591 163.012 87.3832 163.771 86.3036C164.525 85.1681 165.547 84.2346 166.746 83.5847C168.031 82.9549 169.414 82.5483 170.835 82.3824C174.03 81.9579 177.272 82.0383 180.441 82.6205C184.062 83.265 187.547 84.5241 190.743 86.3433C190.941 86.456 190.729 86.7404 190.532 86.6284Z" fill="white"/>
<path d="M173.563 82.3063C173.593 81.1792 174.023 80.0996 174.777 79.2604C175.53 78.4212 176.557 77.877 177.674 77.725C177.9 77.695 177.958 78.045 177.731 78.075C176.69 78.2147 175.734 78.7217 175.034 79.5046C174.334 80.2875 173.937 81.2948 173.915 82.3445C173.91 82.5726 173.557 82.5332 173.563 82.3063Z" fill="white"/>
<path d="M164.471 85.7849C166.041 87.4724 168.189 88.5061 170.488 88.68C170.716 88.697 170.678 89.0496 170.45 89.0325C168.058 88.8472 165.824 87.7668 164.194 86.0072C164.039 85.8393 164.316 85.618 164.471 85.7849Z" fill="white"/>
<path d="M183.803 83.6568C183.7 84.0905 183.706 84.5428 183.822 84.9733C183.937 85.4038 184.158 85.7988 184.463 86.123C184.621 86.2888 184.343 86.51 184.187 86.3453C183.851 85.9856 183.608 85.5489 183.479 85.0736C183.351 84.5983 183.341 84.0988 183.45 83.6187C183.456 83.5725 183.48 83.5306 183.517 83.5014C183.553 83.4722 183.599 83.4579 183.645 83.4615C183.692 83.4668 183.735 83.4902 183.764 83.5268C183.794 83.5634 183.807 83.6101 183.803 83.6568Z" fill="white"/>
<path d="M16.463 201.334C15.9974 203.08 14.7741 204.534 13.2971 205.594C13.0563 205.767 12.8091 205.928 12.5586 206.078C12.4816 206.123 12.4045 206.172 12.3242 206.213C12.2375 206.265 12.1508 206.313 12.0641 206.358H5.1191C4.99388 206.104 4.87187 205.847 4.74986 205.594C1.77341 199.34 -0.31684 192.592 0.0395627 185.718C0.180961 183.052 0.741148 180.425 1.69956 177.933C3.6068 172.967 7.08735 168.668 11.8747 166.504C11.9935 166.45 12.1187 166.395 12.2407 166.344C12.2022 166.482 12.1637 166.617 12.1252 166.755C11.6116 168.605 11.2486 170.493 11.0399 172.402C11.0206 172.549 11.0046 172.697 10.9917 172.848C10.5356 177.451 10.9406 182.098 12.1862 186.553C12.1894 186.563 12.1926 186.575 12.1958 186.585C12.4687 187.571 12.7855 188.541 13.1462 189.497C13.4288 190.251 13.7338 190.996 14.0677 191.728C15.4612 194.8 17.3299 198.075 16.463 201.334Z" fill="#E6E6E6"/>
<path d="M12.328 166.488C12.2606 166.578 12.1932 166.665 12.1258 166.755C10.7155 168.624 9.51796 170.644 8.55531 172.778C8.50393 172.884 8.45577 172.99 8.41403 173.099C7.09501 176.078 6.24791 179.245 5.90315 182.486C5.89942 182.508 5.89728 182.531 5.89674 182.553C5.81646 183.311 5.7683 184.075 5.74903 184.839C5.67764 186.271 5.83259 187.706 6.20818 189.089C6.55065 190.22 7.15077 191.255 7.9613 192.114C8.04157 192.2 8.12184 192.287 8.20854 192.37C8.27275 192.438 8.34339 192.505 8.41082 192.57C9.05941 193.189 9.769 193.764 10.3791 194.428C10.6587 194.726 10.9112 195.049 11.1336 195.391C11.4886 195.966 11.7179 196.609 11.8064 197.279C11.895 197.948 11.8407 198.629 11.6473 199.276C11.2107 200.9 10.2121 202.271 9.19105 203.578C8.68053 204.233 8.15395 204.894 7.69801 205.594C7.53106 205.844 7.37693 206.098 7.23567 206.358H6.8311C6.96596 206.098 7.11366 205.844 7.2742 205.594C8.44616 203.748 10.1126 202.162 10.9763 200.13C11.5607 198.759 11.7373 197.205 10.9988 195.86C10.7823 195.469 10.5204 195.105 10.2185 194.775C9.63096 194.11 8.92778 193.542 8.28883 192.942C8.12829 192.791 7.97095 192.637 7.82004 192.476C7.01997 191.664 6.40258 190.69 6.00913 189.619C5.56356 188.26 5.35291 186.834 5.38623 185.404C5.38623 184.492 5.43439 183.574 5.5243 182.662C5.53393 182.547 5.54677 182.428 5.55962 182.309C6.21625 176.572 8.39696 171.115 11.8753 166.505C11.9395 166.415 12.007 166.328 12.0744 166.241C12.2125 166.061 12.4661 166.312 12.328 166.488Z" fill="white"/>
<path d="M5.68943 182.692C4.57729 182.506 3.56777 181.93 2.84114 181.067C2.11451 180.205 1.7181 179.113 1.7227 177.985C1.72331 177.939 1.74175 177.895 1.77413 177.863C1.80651 177.83 1.8503 177.811 1.89628 177.81C1.94226 177.809 1.98683 177.826 2.02061 177.857C2.05438 177.888 2.07473 177.931 2.07735 177.977C2.07113 179.027 2.44049 180.045 3.11877 180.847C3.79704 181.648 4.73955 182.181 5.77619 182.349C6.00142 182.385 5.91337 182.729 5.68943 182.692Z" fill="white"/>
<path d="M7.87155 192.178C9.76101 190.858 11.0833 188.874 11.5747 186.622C11.6232 186.398 11.967 186.485 11.9185 186.708C11.4028 189.051 10.0226 191.113 8.05337 192.483C7.86558 192.613 7.68478 192.308 7.87155 192.178Z" fill="white"/>
<path d="M8.44806 172.74C8.86331 172.902 9.31228 172.958 9.75465 172.904C10.197 172.849 10.6189 172.686 10.9825 172.428C11.1686 172.295 11.3492 172.601 11.1643 172.733C10.7613 173.016 10.2951 173.196 9.8065 173.257C9.31788 173.318 8.8217 173.259 8.3613 173.084C8.31652 173.071 8.27831 173.042 8.25443 173.002C8.23055 172.962 8.2228 172.914 8.23274 172.869C8.24446 172.823 8.27365 172.784 8.31397 172.76C8.35429 172.736 8.40248 172.729 8.44806 172.74Z" fill="white"/>
<path d="M36.416 178.903C36.3036 178.99 36.188 179.076 36.0756 179.166C34.5512 180.333 33.1241 181.621 31.8084 183.019C31.7057 183.125 31.6029 183.234 31.5034 183.343L31.5002 183.346C28.3805 186.732 25.9138 190.666 24.2244 194.948L24.2148 194.977C24.2116 194.987 24.2083 194.993 24.2051 195.003C23.5355 196.717 22.9956 198.479 22.5901 200.274C22.1984 202.027 21.8773 203.905 21.264 205.594C21.1709 205.854 21.0681 206.111 20.959 206.358H6.68359C6.73176 206.104 6.78313 205.848 6.8345 205.594C7.56068 201.874 8.69564 198.246 10.2187 194.775C10.2701 194.659 10.3215 194.544 10.3793 194.428C11.1655 192.713 12.0901 191.065 13.1438 189.5L13.144 189.499L13.1447 189.498L13.1458 189.497L13.147 189.497C13.7256 188.643 14.3472 187.819 15.0093 187.028C16.7265 184.986 18.755 183.226 21.02 181.815C21.0328 181.805 21.0489 181.799 21.0617 181.789C25.5697 178.993 30.9126 177.661 36.021 178.813H36.0242C36.1559 178.842 36.2843 178.871 36.416 178.903Z" fill="#E6E6E6"/>
<path d="M36.3986 179.073C36.2894 179.102 36.1802 179.134 36.0743 179.166C33.824 179.809 31.652 180.699 29.598 181.821C29.4953 181.876 29.3925 181.933 29.2898 181.991C26.4513 183.575 23.8747 185.588 21.6512 187.959C21.6495 187.961 21.6483 187.963 21.648 187.966C21.6223 187.991 21.5934 188.02 21.5709 188.046C21.0572 188.598 20.5627 189.173 20.0939 189.763C19.177 190.865 18.4381 192.103 17.9042 193.433C17.4962 194.541 17.3521 195.73 17.4835 196.903C17.4932 197.022 17.5092 197.138 17.5253 197.256C17.5381 197.35 17.551 197.443 17.567 197.539C17.7789 198.826 18.145 200.117 18.0422 201.43C17.9797 202.103 17.7754 202.755 17.4428 203.343C17.1102 203.931 16.6569 204.442 16.1125 204.843C15.7425 205.129 15.347 205.38 14.9309 205.594C14.3361 205.9 13.7163 206.156 13.0783 206.358H11.8164C11.9866 206.31 12.1535 206.262 12.3237 206.213C12.9276 206.043 13.5206 205.836 14.0993 205.594C14.4299 205.456 14.7516 205.297 15.0626 205.119C16.3533 204.377 17.429 203.241 17.6537 201.722C17.8496 200.393 17.4707 199.064 17.2459 197.764C17.2074 197.539 17.1721 197.317 17.1528 197.096C16.9995 195.97 17.0926 194.824 17.4257 193.738C17.8877 192.383 18.5784 191.117 19.4678 189.995C20.018 189.264 20.6053 188.562 21.2274 187.892C21.3044 187.805 21.3847 187.718 21.4682 187.632C23.7384 185.244 26.3597 183.216 29.2416 181.619H29.2448C31.3877 180.426 33.661 179.485 36.0197 178.813H36.0229C36.1289 178.781 36.238 178.749 36.344 178.72C36.5655 178.662 36.6169 179.012 36.3986 179.073Z" fill="white"/>
<path d="M21.3417 188.014C20.5662 187.195 20.107 186.128 20.046 185.002C19.9851 183.876 20.3264 182.765 21.009 181.867C21.1478 181.686 21.4358 181.893 21.2969 182.075C20.6597 182.909 20.3418 183.944 20.4007 184.992C20.4596 186.041 20.8913 187.033 21.618 187.791C21.7757 187.956 21.4985 188.178 21.3417 188.014Z" fill="white"/>
<path d="M17.3729 196.901C19.6766 196.985 21.9271 196.196 23.6755 194.694C23.8486 194.545 24.0707 194.822 23.8978 194.97C22.0755 196.53 19.7319 197.346 17.3347 197.254C17.1062 197.245 17.1456 196.893 17.3729 196.901Z" fill="white"/>
<path d="M29.5378 181.728C29.7719 182.108 30.0965 182.423 30.4825 182.646C30.8684 182.868 31.3038 182.992 31.7493 183.005C31.9778 183.011 31.9381 183.364 31.7111 183.358C31.2189 183.341 30.7384 183.204 30.3114 182.959C29.8843 182.713 29.5239 182.367 29.2615 181.951C29.2335 181.913 29.2207 181.867 29.2257 181.821C29.2307 181.774 29.2531 181.732 29.2885 181.701C29.3252 181.672 29.372 181.659 29.4187 181.664C29.4654 181.669 29.5082 181.692 29.5378 181.728Z" fill="white"/>
<path d="M146.537 55.581C146.207 56.0143 145.787 56.3702 145.305 56.6235C144.823 56.8768 144.291 57.0214 143.747 57.047C143.204 57.0726 142.661 56.9787 142.157 56.7719C141.653 56.5651 141.201 56.2503 140.832 55.8498L128.695 61.1277L129.878 54.3533L141.222 50.38C141.936 49.805 142.836 49.5119 143.752 49.5561C144.667 49.6004 145.535 49.9789 146.19 50.62C146.845 51.2611 147.242 52.1202 147.306 53.0345C147.37 53.9489 147.097 54.8549 146.537 55.581Z" fill="#FFB8B8"/>
<path d="M138.437 57.6962L110.246 70.2514L110.186 70.2298L78.0561 58.782C75.6628 57.5314 73.8382 55.4134 72.9559 52.8616C72.0735 50.3098 72.2002 47.5173 73.3099 45.0558C73.925 43.6959 74.8212 42.4816 75.9395 41.4929C77.0579 40.5042 78.3729 39.7635 79.7982 39.3196C81.2234 38.8757 82.7265 38.7386 84.2086 38.9174C85.6906 39.0962 87.118 39.5868 88.3967 40.357L112.307 54.7584L135.493 51.7539L138.437 57.6962Z" fill="#E6E6E6"/>
<path d="M100.609 95.2827L72.1915 90.7378C71.4462 90.4991 70.7614 90.102 70.1841 89.5738C69.6067 89.0455 69.1506 88.3985 68.8469 87.6774C68.5432 86.9562 68.3992 86.1778 68.4248 85.3958C68.4503 84.6137 68.6449 83.8464 68.995 83.1466L70.2837 80.5692L69.7831 53.4908C69.7228 49.9686 70.5912 46.4925 72.3011 43.4124C74.011 40.3323 76.5021 37.7568 79.5236 35.9449L82.2949 34.2882L83.6954 30.7322L96.6094 31.0471L96.6471 35.7109L101.272 43.0846L101.272 43.1152L100.982 83.2491L99.7069 87.391L101.634 92.2084L100.609 95.2827Z" fill="#E6E6E6"/>
<path d="M91.3353 26.3102C97.8157 26.3102 103.069 21.0576 103.069 14.5782C103.069 8.09879 97.8157 2.84619 91.3353 2.84619C84.8549 2.84619 79.6016 8.09879 79.6016 14.5782C79.6016 21.0576 84.8549 26.3102 91.3353 26.3102Z" fill="#FFB8B8"/>
<path d="M79.116 17.1357C78.766 15.6615 78.9267 13.5871 79.1245 12.1028C79.643 8.21139 81.8044 4.51194 85.0881 2.32063C85.7107 1.84779 86.4506 1.55382 87.228 1.47038C88.0048 1.43795 88.8469 1.85375 89.0853 2.59368C89.281 2.10532 89.5748 1.66225 89.9484 1.29181C90.322 0.921363 90.7676 0.631409 91.2576 0.439846C92.242 0.0627424 93.3008 -0.0798693 94.3499 0.0233155C96.3834 0.190909 98.3336 0.905833 99.9935 2.09221C101.653 3.27859 102.961 4.89217 103.778 6.76171C104.091 7.50613 104.967 4.75644 105.364 5.45981C105.729 6.19093 106.365 6.7502 107.137 7.01794C107.916 7.23502 108.232 10.4403 108.538 9.69289C108.775 10.2452 108.869 10.8487 108.811 11.4472C108.752 12.0456 108.543 12.6194 108.203 13.1153C107.863 13.6112 107.403 14.013 106.866 14.2833C106.329 14.5536 105.732 14.6835 105.131 14.661C104.339 14.6314 103.582 14.3401 102.799 14.2148C100.001 13.7665 97.0325 15.7953 96.4343 18.565C96.2201 17.764 95.8779 17.0029 95.421 16.311C95.1891 15.9669 94.8783 15.6831 94.5146 15.4833C94.1509 15.2834 93.7446 15.1733 93.3298 15.1621C92.5336 15.1919 91.8338 15.7124 91.3172 16.3188C90.8007 16.9253 90.4127 17.6328 89.8923 18.236C88.3654 20.0059 86.3002 24.1333 84.1242 23.8323C82.407 23.5948 79.5939 19.1484 79.116 17.1357Z" fill="#323B49"/>
<path d="M162.264 68.8754C162.346 68.3405 162.236 67.7938 161.954 67.3323C161.671 66.8708 161.234 66.5242 160.721 66.3541L129.122 55.8314C128.819 55.7301 128.498 55.6933 128.18 55.7233L120.26 56.4721L115.715 56.9032L107.329 57.6956C106.823 57.744 106.347 57.9591 105.976 58.3071C105.605 58.6551 105.36 59.1163 105.279 59.6185L101.021 86.2124C100.941 86.7311 101.04 87.2618 101.301 87.7169C101.563 88.1719 101.972 88.524 102.461 88.7152L134.39 101.038C134.54 101.096 134.696 101.138 134.854 101.163C135.086 101.2 135.321 101.202 135.553 101.168L156.184 98.1106C156.671 98.0402 157.122 97.8148 157.47 97.4678C157.819 97.1209 158.046 96.6709 158.118 96.1846L162.264 68.8754Z" fill="white"/>
<path d="M103.185 86.8414L135.114 99.1636C135.16 99.182 135.211 99.1879 135.261 99.1808L155.889 96.1238C155.95 96.1154 156.007 96.0873 156.051 96.0438C156.095 96.0002 156.123 95.9436 156.132 95.8825L160.28 68.5729C160.289 68.5062 160.275 68.4384 160.24 68.3809C160.205 68.3234 160.151 68.2799 160.088 68.2578L159.875 68.1859L128.487 57.7375C128.472 57.7324 128.458 57.7289 128.443 57.7269C128.418 57.7224 128.393 57.7211 128.369 57.723L109.051 59.5508L107.518 59.6946C107.455 59.7013 107.396 59.7284 107.35 59.7717C107.304 59.8151 107.273 59.8723 107.263 59.9346L103.006 86.5275C102.995 86.5925 103.007 86.6591 103.04 86.7162C103.073 86.7733 103.124 86.8175 103.185 86.8414Z" fill="#3636F0"/>
<path d="M109.051 59.5508L128.369 57.723C128.393 57.7211 128.418 57.7224 128.442 57.7269C128.457 57.7289 128.472 57.7324 128.487 57.7375L159.875 68.1859L151.595 69.0623L148.497 69.3887L139.68 70.3201C139.654 70.3213 139.628 70.321 139.602 70.3191C139.587 70.3144 139.571 70.3097 139.552 70.3046L109.051 59.5508Z" fill="#323B49"/>
<path d="M102.461 88.717L134.389 101.039C134.539 101.097 134.696 101.138 134.855 101.161C135.086 101.199 135.322 101.202 135.554 101.17L156.183 98.1128C156.67 98.0419 157.121 97.8162 157.469 97.4691C157.818 97.122 158.045 96.6718 158.118 96.1854L162.263 68.8755C162.325 68.4729 162.278 68.0612 162.129 67.6823C162.108 67.6319 162.087 67.5815 162.063 67.5341C161.898 67.1881 161.648 66.89 161.336 66.668C161.148 66.5331 160.94 66.4274 160.721 66.3545L160.683 66.3412L129.123 55.8313C128.994 55.7902 128.863 55.7582 128.729 55.7356C128.547 55.7098 128.362 55.7062 128.179 55.7249L120.26 56.4712L115.716 56.9047L107.328 57.6965C106.985 57.7285 106.653 57.838 106.359 58.0167C106.336 58.0277 106.314 58.0407 106.294 58.0556C106.279 58.0652 106.265 58.0757 106.252 58.0871C105.995 58.2627 105.776 58.4889 105.609 58.7518C105.442 59.0147 105.33 59.3089 105.28 59.6164L101.019 86.2122C100.939 86.7314 101.038 87.2624 101.3 87.7178C101.562 88.1732 101.971 88.5256 102.461 88.717ZM105.846 59.7091C105.897 59.3904 106.039 59.0929 106.253 58.8516C106.318 58.7739 106.391 58.703 106.47 58.6401C106.687 58.465 106.943 58.3455 107.216 58.2921C107.27 58.281 107.325 58.2732 107.38 58.269L121.503 56.935L128.234 56.2946C128.28 56.2893 128.321 56.29 128.364 56.2876C128.466 56.2855 128.567 56.2931 128.668 56.3102C128.76 56.3222 128.851 56.3439 128.939 56.3748L160.536 66.898C160.561 66.9069 160.583 66.9154 160.608 66.9242C160.895 67.0311 161.148 67.2148 161.338 67.4551C161.488 67.6392 161.598 67.8528 161.66 68.0822C161.722 68.3115 161.735 68.5513 161.698 68.786L157.549 96.0987C157.495 96.463 157.325 96.8001 157.064 97.0603C156.803 97.3205 156.466 97.4901 156.102 97.5439L135.47 100.601C135.175 100.643 134.873 100.609 134.595 100.501L102.667 88.182C102.301 88.0378 101.994 87.7735 101.798 87.4325C101.602 87.0915 101.528 86.694 101.588 86.3052L105.846 59.7091Z" fill="#323B49"/>
<path d="M106.183 58.2318C106.2 58.1834 106.23 58.1405 106.269 58.1078C106.282 58.0973 106.296 58.0879 106.311 58.0795C106.324 58.0743 106.338 58.0659 106.351 58.0608C106.415 58.035 106.487 58.0338 106.552 58.0573L107.216 58.2918L139.683 69.743L147.281 68.9402L151.533 68.4918L160.533 67.5392L161.338 67.4548L161.494 67.4375C161.562 67.4314 161.629 67.449 161.685 67.4873C161.741 67.5256 161.782 67.5822 161.8 67.6473C161.804 67.6623 161.807 67.6777 161.809 67.6933C161.815 67.7551 161.802 67.8174 161.77 67.8708C161.738 67.9241 161.69 67.9657 161.632 67.9892C161.607 67.9998 161.58 68.007 161.553 68.0107L160.458 68.1254L151.595 69.0621L148.496 69.3885L139.679 70.3199C139.654 70.3212 139.628 70.3209 139.602 70.3189C139.586 70.3142 139.571 70.3095 139.552 70.3045L106.47 58.6397L106.358 58.6C106.332 58.5915 106.308 58.5783 106.287 58.561C106.237 58.5243 106.2 58.4726 106.182 58.4134C106.163 58.3542 106.163 58.2906 106.183 58.2318Z" fill="#323B49"/>
<path d="M134.943 101.245C134.868 101.233 134.801 101.192 134.756 101.131C134.712 101.07 134.693 100.993 134.704 100.919L139.366 69.9917C139.377 69.9165 139.418 69.8488 139.479 69.8036C139.54 69.7585 139.617 69.7394 139.692 69.7508L139.695 69.7512C139.769 69.7631 139.836 69.8041 139.881 69.8652C139.926 69.9262 139.944 70.0025 139.933 70.0773L135.272 101.004C135.261 101.079 135.22 101.147 135.159 101.192C135.097 101.237 135.021 101.256 134.945 101.245L134.943 101.245Z" fill="#323B49"/>
<path d="M146.756 99.2826L143.656 99.6096L147.282 68.9395C147.282 68.9395 151.423 68.19 151.533 68.4905C151.601 68.67 146.786 99.0858 146.756 99.2826Z" fill="#323B49"/>
<path d="M106.359 58.5999L106.275 72.5865L131.039 82.0211L139.932 70.0772L106.359 58.5999Z" fill="#323B49"/>
<path d="M161.339 67.4554C161.132 67.1953 160.853 67.0014 160.537 66.8979L128.941 56.3751C128.852 56.3452 128.761 56.323 128.669 56.3087C128.568 56.2914 128.466 56.2838 128.363 56.2859L128.415 55.9657L128.731 55.7367L136.234 50.3052L161.292 57.9834L161.335 66.668L161.339 67.4554Z" fill="#323B49"/>
<path d="M107.621 81.0529C107.656 81.0564 107.692 81.0637 107.725 81.0749L117.42 84.2586C117.542 84.2984 117.642 84.3848 117.7 84.4988C117.757 84.6128 117.767 84.745 117.728 84.8663C117.688 84.9877 117.601 85.0882 117.487 85.1459C117.373 85.2036 117.241 85.2136 117.12 85.1737L107.425 81.9901C107.313 81.9531 107.218 81.8759 107.158 81.7734C107.099 81.6708 107.08 81.55 107.104 81.434C107.128 81.3181 107.194 81.2151 107.29 81.1448C107.385 81.0745 107.503 81.0418 107.621 81.0529Z" fill="white"/>
<path d="M146.736 139.727C148.864 139.727 150.589 138.002 150.589 135.874C150.589 133.747 148.864 132.022 146.736 132.022C144.608 132.022 142.883 133.747 142.883 135.874C142.883 138.002 144.608 139.727 146.736 139.727Z" fill="#F2F2F2"/>
<path d="M48.4839 153.852C50.6118 153.852 52.3369 152.128 52.3369 150C52.3369 147.872 50.6118 146.147 48.4839 146.147C46.3559 146.147 44.6309 147.872 44.6309 150C44.6309 152.128 46.3559 153.852 48.4839 153.852Z" fill="#F2F2F2"/>
<path d="M128.755 26.4007C130.883 26.4007 132.608 24.6759 132.608 22.5482C132.608 20.4206 130.883 18.6958 128.755 18.6958C126.627 18.6958 124.902 20.4206 124.902 22.5482C124.902 24.6759 126.627 26.4007 128.755 26.4007Z" fill="#F2F2F2"/>
<path d="M135.077 86.7189C134.577 86.9358 134.036 87.0406 133.492 87.0259C132.948 87.0112 132.413 86.8774 131.926 86.6339C131.439 86.3903 131.012 86.043 130.674 85.6163C130.335 85.1896 130.095 84.694 129.969 84.1644L116.801 82.8342L121.145 77.5029L132.984 79.5835C133.888 79.431 134.816 79.6154 135.593 80.1016C136.37 80.5879 136.942 81.3423 137.2 82.2218C137.458 83.1013 137.384 84.0449 136.993 84.8738C136.602 85.7026 135.92 86.3591 135.077 86.7189Z" fill="#FFB8B8"/>
<path d="M126.978 84.604L96.2475 81.7729L96.2053 81.7245L73.7774 56.0298C72.3014 53.7689 71.7457 51.0293 72.224 48.372C72.7023 45.7147 74.1785 43.3407 76.3503 41.7362C77.552 40.8506 78.9276 40.2296 80.3866 39.9139C81.8457 39.5982 83.355 39.5951 84.8154 39.9047C86.2757 40.2143 87.6539 40.8297 88.8592 41.7103C90.0645 42.5908 91.0697 43.7167 91.8084 45.0136L105.622 69.2662L127.316 77.9813L126.978 84.604Z" fill="#E6E6E6"/>
<path d="M204.111 35.1908C203.347 29.5939 202.39 23.5848 198.442 19.5445C197.189 18.2625 195.69 17.2475 194.034 16.5605C192.379 15.8736 190.601 15.529 188.808 15.5476C187.016 15.5661 185.246 15.9474 183.605 16.6685C181.963 17.3895 180.485 18.4354 179.259 19.743C176.385 22.8085 175.116 27.113 175 31.3131C174.884 35.5133 175.819 39.6668 176.857 43.7384C182.35 43.8481 187.802 42.7751 192.843 40.5924C194.103 40.0453 195.344 39.4269 196.675 39.0879C198.007 38.749 198.957 39.6019 200.195 40.1966L200.876 38.8946C201.432 39.9305 203.156 39.6234 203.781 38.6275C204.406 37.6315 204.269 36.356 204.111 35.1908Z" fill="#323B49"/>
<path d="M182.339 66.4309L159.903 66.9107C159.559 66.3152 159.048 65.8326 158.435 65.5217C157.821 65.2109 157.13 65.0851 156.446 65.1597C155.762 65.2343 155.114 65.506 154.582 65.9419C154.05 66.3778 153.655 66.9589 153.447 67.6147C153.239 68.2705 153.226 68.9725 153.41 69.6355C153.594 70.2985 153.966 70.8938 154.482 71.3489C154.998 71.804 155.636 72.0994 156.316 72.1991C156.997 72.2988 157.692 72.1985 158.317 71.9104C161.293 72.0795 184.573 75.3832 185.962 73.2541C187.371 71.0932 194.895 63.467 194.895 63.467L189.112 55.2344L182.339 66.4309Z" fill="#9E616A"/>
<path d="M187.805 40.7283C193.627 40.7283 198.346 36.0095 198.346 30.1886C198.346 24.3677 193.627 19.6489 187.805 19.6489C181.983 19.6489 177.264 24.3677 177.264 30.1886C177.264 36.0095 181.983 40.7283 187.805 40.7283Z" fill="#9E616A"/>
<path d="M204.689 50.4683C203.447 47.9964 202.843 44.9426 200.195 44.1412C198.406 43.6001 191.173 44.411 189.543 45.3245C186.832 46.844 189.289 49.6914 187.69 52.3559C185.951 55.2525 181.226 61.0656 179.487 63.9622C178.292 65.9535 182.318 71.7985 181.672 74.0292C181.025 76.2599 180.994 78.7637 182.095 80.8086C183.081 82.639 181.655 84.2582 182.646 86.0855C183.676 87.9859 184.941 95.0915 183.982 97.029L183.34 98.9552C189.712 99.3296 195.071 91.7177 201.403 90.9158C202.976 90.7167 204.61 90.4565 205.906 89.5436C207.815 88.1989 208.57 85.7588 209.042 83.4719C211.312 72.2932 209.78 60.6764 204.689 50.4683Z" fill="#323B49"/>
<path d="M214.242 76.5689C213.355 74.1464 211.748 63.5551 211.748 63.5551L201.69 63.2603L206.607 75.3865L193.189 94.168C193.189 94.168 193.214 94.2093 193.259 94.2829C192.554 94.1697 191.831 94.2721 191.184 94.5766C190.538 94.8812 189.999 95.3737 189.637 95.9898C189.275 96.6059 189.108 97.3168 189.157 98.0295C189.206 98.7422 189.469 99.4236 189.912 99.9843C190.354 100.545 190.956 100.959 191.638 101.172C192.32 101.386 193.05 101.388 193.733 101.18C194.417 100.971 195.021 100.561 195.468 100.003C195.914 99.4453 196.182 98.7658 196.236 98.0534C196.285 98.0817 196.343 98.0919 196.399 98.0823C196.455 98.0727 196.506 98.0438 196.543 98.0006C198.036 96.1272 215.13 78.9913 214.242 76.5689Z" fill="#9E616A"/>
<path d="M215.266 69.88C214.343 65.9843 213.413 62.0674 211.857 58.3786C210.3 54.6898 208.072 51.2057 204.938 48.7137C203.936 47.9169 202.816 47.2137 201.56 46.966C200.304 46.7182 198.889 46.9955 198.007 47.9231C196.595 49.4074 197.02 51.79 197.538 53.7717C199.064 59.6147 200.591 65.4577 202.117 71.3007C206.526 70.8335 210.934 70.3663 215.342 69.8991L215.266 69.88Z" fill="#323B49"/>
<path d="M200.722 31.6506C200.334 29.1009 199.928 26.5299 199.016 24.1291C198.104 21.7284 196.634 19.4797 194.525 18.1197C191.186 15.9665 186.864 16.3818 183.12 17.6203C180.225 18.5782 177.399 20.0341 175.358 22.3747C173.316 24.7153 172.17 28.055 172.929 31.1154C176.922 30.1721 180.915 29.2288 184.908 28.2855L184.471 28.5944C185.782 29.2481 186.927 30.1918 187.819 31.354C188.711 32.5162 189.326 33.8662 189.618 35.3017C189.904 36.7546 189.863 38.2528 189.498 39.688C189.134 41.1231 188.455 42.4592 187.51 43.5998C190.234 42.6338 192.957 41.6679 195.68 40.702C197.361 40.1058 199.16 39.4188 200.157 37.8896C201.313 36.1165 201.044 33.7665 200.722 31.6506Z" fill="#323B49"/>
</g>
<defs>
<clipPath id="clip0_6071_208927">
<rect width="277" height="205" fill="white"/>
</clipPath>
</defs>
</svg>
