<svg width="35" height="35" viewBox="0 0 35 35" fill="none" xmlns="http://www.w3.org/2000/svg">
<rect x="34.6172" y="34.7578" width="34" height="34" rx="17" transform="rotate(-180 34.6172 34.7578)" fill="#7152F3" fill-opacity="0.05"/>
<path opacity="0.5" d="M17.6172 26.7578C22.5878 26.7578 26.6172 22.7284 26.6172 17.7578C26.6172 12.7872 22.5878 8.75781 17.6172 8.75781C12.6466 8.75781 8.61719 12.7872 8.61719 17.7578C8.61719 22.7284 12.6466 26.7578 17.6172 26.7578Z" stroke="#3636F0" stroke-width="1.5"/>
<path d="M17.618 12.3594V23.1594M20.318 15.5094C20.318 14.2674 19.1093 13.2594 17.618 13.2594C16.1267 13.2594 14.918 14.2674 14.918 15.5094C14.918 16.7514 16.1267 17.7594 17.618 17.7594C19.1093 17.7594 20.318 18.7674 20.318 20.0094C20.318 21.2514 19.1093 22.2594 17.618 22.2594C16.1267 22.2594 14.918 21.2514 14.918 20.0094" stroke="#3636F0" stroke-width="1.5" stroke-linecap="round"/>
</svg>
