<svg width="36" height="36" viewBox="0 0 36 36" fill="none" xmlns="http://www.w3.org/2000/svg">
<rect x="35.6484" y="35.2578" width="35" height="35" rx="17.5" transform="rotate(-180 35.6484 35.2578)" fill="#7152F3" fill-opacity="0.05"/>
<mask id="path-2-inside-1_6_509298" fill="white">
<path fill-rule="evenodd" clip-rule="evenodd" d="M17.5466 9.63752C14.3043 9.63752 11.6761 12.2657 11.6761 15.508C11.6761 17.9482 13.1654 20.0413 15.2846 20.9268H15.2892V20.9286C16.0047 21.2261 16.7721 21.379 17.547 21.3784C18.322 21.3788 19.0894 21.2258 19.8049 20.9282V20.9268H19.8085C21.9277 20.0413 23.417 17.9482 23.417 15.508C23.417 12.2657 20.7889 9.63752 17.5466 9.63752ZM20.708 21.5003C22.8561 20.3637 24.3206 18.1067 24.3206 15.508C24.3206 11.7671 21.2878 8.73438 17.547 8.73438C13.8062 8.73438 10.7734 11.7671 10.7734 15.508C10.7734 18.1072 12.2379 20.3651 14.3865 21.5003V26.3457C14.3865 26.4274 14.4086 26.5077 14.4506 26.5778C14.4927 26.6479 14.5529 26.7053 14.625 26.7439C14.6971 26.7825 14.7783 26.8008 14.8599 26.7968C14.9416 26.7928 15.0207 26.7668 15.0887 26.7214L17.547 25.0822L20.0058 26.7214C20.0738 26.7668 20.1529 26.7928 20.2345 26.7968C20.3162 26.8008 20.3974 26.7825 20.4695 26.7439C20.5416 26.7053 20.6018 26.6479 20.6438 26.5778C20.6859 26.5077 20.708 26.4274 20.708 26.3457V21.5003ZM19.8049 21.8959C19.0796 22.1517 18.3161 22.2821 17.547 22.2815C16.7554 22.2815 15.9959 22.1461 15.2896 21.8963V25.5021L17.2968 24.1637C17.3711 24.1142 17.4583 24.0878 17.5475 24.0878C17.6367 24.0878 17.7239 24.1142 17.7981 24.1637L19.8049 25.5021V21.8959ZM17.547 12.347C17.1319 12.347 16.7209 12.4287 16.3374 12.5876C15.9538 12.7464 15.6054 12.9793 15.3118 13.2728C15.0183 13.5663 14.7855 13.9148 14.6266 14.2983C14.4678 14.6818 14.386 15.0928 14.386 15.508C14.386 15.9231 14.4678 16.3341 14.6266 16.7176C14.7855 17.1011 15.0183 17.4496 15.3118 17.7431C15.6054 18.0366 15.9538 18.2695 16.3374 18.4283C16.7209 18.5872 17.1319 18.669 17.547 18.669C18.3854 18.669 19.1894 18.3359 19.7822 17.7431C20.375 17.1503 20.708 16.3463 20.708 15.508C20.708 14.6696 20.375 13.8656 19.7822 13.2728C19.1894 12.68 18.3854 12.347 17.547 12.347ZM13.4829 15.508C13.4829 14.4301 13.9111 13.3963 14.6732 12.6342C15.4354 11.872 16.4691 11.4438 17.547 11.4438C18.6249 11.4438 19.6586 11.872 20.4208 12.6342C21.183 13.3963 21.6112 14.4301 21.6112 15.508C21.6112 16.5858 21.183 17.6196 20.4208 18.3817C19.6586 19.1439 18.6249 19.5721 17.547 19.5721C16.4691 19.5721 15.4354 19.1439 14.6732 18.3817C13.9111 17.6196 13.4829 16.5858 13.4829 15.508Z"/>
</mask>
<path fill-rule="evenodd" clip-rule="evenodd" d="M17.5466 9.63752C14.3043 9.63752 11.6761 12.2657 11.6761 15.508C11.6761 17.9482 13.1654 20.0413 15.2846 20.9268H15.2892V20.9286C16.0047 21.2261 16.7721 21.379 17.547 21.3784C18.322 21.3788 19.0894 21.2258 19.8049 20.9282V20.9268H19.8085C21.9277 20.0413 23.417 17.9482 23.417 15.508C23.417 12.2657 20.7889 9.63752 17.5466 9.63752ZM20.708 21.5003C22.8561 20.3637 24.3206 18.1067 24.3206 15.508C24.3206 11.7671 21.2878 8.73438 17.547 8.73438C13.8062 8.73438 10.7734 11.7671 10.7734 15.508C10.7734 18.1072 12.2379 20.3651 14.3865 21.5003V26.3457C14.3865 26.4274 14.4086 26.5077 14.4506 26.5778C14.4927 26.6479 14.5529 26.7053 14.625 26.7439C14.6971 26.7825 14.7783 26.8008 14.8599 26.7968C14.9416 26.7928 15.0207 26.7668 15.0887 26.7214L17.547 25.0822L20.0058 26.7214C20.0738 26.7668 20.1529 26.7928 20.2345 26.7968C20.3162 26.8008 20.3974 26.7825 20.4695 26.7439C20.5416 26.7053 20.6018 26.6479 20.6438 26.5778C20.6859 26.5077 20.708 26.4274 20.708 26.3457V21.5003ZM19.8049 21.8959C19.0796 22.1517 18.3161 22.2821 17.547 22.2815C16.7554 22.2815 15.9959 22.1461 15.2896 21.8963V25.5021L17.2968 24.1637C17.3711 24.1142 17.4583 24.0878 17.5475 24.0878C17.6367 24.0878 17.7239 24.1142 17.7981 24.1637L19.8049 25.5021V21.8959ZM17.547 12.347C17.1319 12.347 16.7209 12.4287 16.3374 12.5876C15.9538 12.7464 15.6054 12.9793 15.3118 13.2728C15.0183 13.5663 14.7855 13.9148 14.6266 14.2983C14.4678 14.6818 14.386 15.0928 14.386 15.508C14.386 15.9231 14.4678 16.3341 14.6266 16.7176C14.7855 17.1011 15.0183 17.4496 15.3118 17.7431C15.6054 18.0366 15.9538 18.2695 16.3374 18.4283C16.7209 18.5872 17.1319 18.669 17.547 18.669C18.3854 18.669 19.1894 18.3359 19.7822 17.7431C20.375 17.1503 20.708 16.3463 20.708 15.508C20.708 14.6696 20.375 13.8656 19.7822 13.2728C19.1894 12.68 18.3854 12.347 17.547 12.347ZM13.4829 15.508C13.4829 14.4301 13.9111 13.3963 14.6732 12.6342C15.4354 11.872 16.4691 11.4438 17.547 11.4438C18.6249 11.4438 19.6586 11.872 20.4208 12.6342C21.183 13.3963 21.6112 14.4301 21.6112 15.508C21.6112 16.5858 21.183 17.6196 20.4208 18.3817C19.6586 19.1439 18.6249 19.5721 17.547 19.5721C16.4691 19.5721 15.4354 19.1439 14.6732 18.3817C13.9111 17.6196 13.4829 16.5858 13.4829 15.508Z" fill="#3636F0"/>
<path d="M15.2846 20.9268L14.6579 22.4268L14.9587 22.5525H15.2846V20.9268ZM15.2892 20.9268H16.9148V19.3012H15.2892V20.9268ZM15.2892 20.9286H13.6635V22.0133L14.6651 22.4297L15.2892 20.9286ZM17.547 21.3784L17.5479 19.7527L17.5458 19.7527L17.547 21.3784ZM19.8049 20.9282L20.4292 22.4292L21.4305 22.0126V20.9282H19.8049ZM19.8049 20.9268V19.3012H18.1792V20.9268H19.8049ZM19.8085 20.9268V22.5525H20.1345L20.4353 22.4268L19.8085 20.9268ZM20.708 21.5003L19.9477 20.0634L19.0824 20.5213V21.5003H20.708ZM14.3865 21.5003H16.0121V20.5206L15.1459 20.063L14.3865 21.5003ZM14.3865 26.3457L16.0121 26.3459V26.3457H14.3865ZM15.0887 26.7214L14.1868 25.3688L14.1864 25.3691L15.0887 26.7214ZM17.547 25.0822L18.4488 23.7296L17.5469 23.1283L16.6451 23.7296L17.547 25.0822ZM20.0058 26.7214L20.9081 25.3691L20.9076 25.3688L20.0058 26.7214ZM20.708 26.3457H19.0824V26.3459L20.708 26.3457ZM19.8049 21.8959H21.4305V19.5987L19.2642 20.3628L19.8049 21.8959ZM17.547 22.2815L17.5482 20.6559H17.547V22.2815ZM15.2896 21.8963L15.8315 20.3637L13.6639 19.5973V21.8963H15.2896ZM15.2896 25.5021H13.6639V28.5401L16.1915 26.8547L15.2896 25.5021ZM17.2968 24.1637L18.1987 25.5162L18.1991 25.516L17.2968 24.1637ZM17.7981 24.1637L16.8959 25.516L16.8961 25.5161L17.7981 24.1637ZM19.8049 25.5021L18.9028 26.8546L21.4305 28.5405V25.5021H19.8049ZM17.547 12.347V13.9726V12.347ZM14.386 15.508H12.7604H14.386ZM17.547 18.669V17.0433V18.669ZM20.708 15.508H19.0824H20.708ZM17.547 11.4438V9.81815V11.4438ZM17.5466 8.01186C13.4065 8.01186 10.0505 11.3678 10.0505 15.508H13.3018C13.3018 13.1635 15.2021 11.2632 17.5466 11.2632V8.01186ZM10.0505 15.508C10.0505 18.6265 11.9548 21.2973 14.6579 22.4268L15.9114 19.4268C14.376 18.7853 13.3018 17.2699 13.3018 15.508H10.0505ZM15.2846 22.5525H15.2892V19.3012H15.2846V22.5525ZM13.6635 20.9268V20.9286H16.9148V20.9268H13.6635ZM14.6651 22.4297C15.5788 22.8096 16.5587 23.0048 17.5482 23.004L17.5458 19.7527C16.9855 19.7531 16.4306 19.6426 15.9132 19.4275L14.6651 22.4297ZM17.5461 23.004C18.5357 23.0046 19.5156 22.8092 20.4292 22.4292L19.1805 19.4272C18.6631 19.6424 18.1083 19.753 17.5479 19.7527L17.5461 23.004ZM21.4305 20.9282V20.9268H18.1792V20.9282H21.4305ZM19.8049 22.5525H19.8085V19.3012H19.8049V22.5525ZM20.4353 22.4268C23.1383 21.2973 25.0427 18.6265 25.0427 15.508H21.7913C21.7913 17.2699 20.7171 18.7853 19.1817 19.4268L20.4353 22.4268ZM25.0427 15.508C25.0427 11.3678 21.6867 8.01186 17.5466 8.01186V11.2632C19.891 11.2632 21.7913 13.1635 21.7913 15.508H25.0427ZM21.4683 22.9372C24.1271 21.5304 25.9463 18.7332 25.9463 15.508H22.6949C22.6949 17.4803 21.5852 19.197 19.9477 20.0634L21.4683 22.9372ZM25.9463 15.508C25.9463 10.8693 22.1857 7.10872 17.547 7.10872V10.36C20.39 10.36 22.6949 12.665 22.6949 15.508H25.9463ZM17.547 7.10872C12.9084 7.10872 9.14778 10.8693 9.14778 15.508H12.3991C12.3991 12.665 14.704 10.36 17.547 10.36V7.10872ZM9.14778 15.508C9.14778 18.7333 10.9667 21.532 13.627 22.9377L15.1459 20.063C13.5091 19.1981 12.3991 17.4811 12.3991 15.508H9.14778ZM12.7608 21.5003V26.3457H16.0121V21.5003H12.7608ZM12.7608 26.3454C12.7607 26.7215 12.8628 27.0905 13.056 27.4131L15.8453 25.7424C15.9545 25.9248 16.0122 26.1334 16.0121 26.3459L12.7608 26.3454ZM13.056 27.4131C13.2493 27.7358 13.5265 27.9999 13.8581 28.1773L15.3919 25.3105C15.5794 25.4108 15.736 25.5601 15.8453 25.7424L13.056 27.4131ZM13.8581 28.1773C14.1896 28.3547 14.5632 28.4388 14.9388 28.4205L14.7811 25.173C14.9934 25.1627 15.2045 25.2103 15.3919 25.3105L13.8581 28.1773ZM14.9388 28.4205C15.3145 28.4023 15.6781 28.2824 15.9909 28.0737L14.1864 25.3691C14.3632 25.2511 14.5687 25.1834 14.7811 25.173L14.9388 28.4205ZM15.9905 28.0739L18.4489 26.4347L16.6451 23.7296L14.1868 25.3688L15.9905 28.0739ZM16.6453 26.4348L19.1041 28.074L20.9076 25.3688L18.4488 23.7296L16.6453 26.4348ZM19.1036 28.0737C19.4164 28.2824 19.78 28.4023 20.1557 28.4205L20.3134 25.173C20.5257 25.1834 20.7313 25.2511 20.9081 25.3691L19.1036 28.0737ZM20.1557 28.4205C20.5313 28.4388 20.9048 28.3547 21.2364 28.1773L19.7026 25.3105C19.89 25.2103 20.1011 25.1627 20.3134 25.173L20.1557 28.4205ZM21.2364 28.1773C21.568 27.9999 21.8452 27.7358 22.0385 27.4131L19.2492 25.7424C19.3584 25.5601 19.5151 25.4108 19.7026 25.3105L21.2364 28.1773ZM22.0385 27.4131C22.2317 27.0905 22.3337 26.7215 22.3337 26.3454L19.0824 26.3459C19.0823 26.1334 19.14 25.9248 19.2492 25.7424L22.0385 27.4131ZM22.3337 26.3457V21.5003H19.0824V26.3457H22.3337ZM19.2642 20.3628C18.713 20.5572 18.1327 20.6563 17.5482 20.6559L17.5458 23.9072C18.4995 23.9079 19.4462 23.7462 20.3456 23.429L19.2642 20.3628ZM17.547 20.6559C16.9421 20.6559 16.3657 20.5526 15.8315 20.3637L14.7477 23.429C15.626 23.7396 16.5687 23.9072 17.547 23.9072V20.6559ZM13.6639 21.8963V25.5021H16.9153V21.8963H13.6639ZM16.1915 26.8547L18.1987 25.5162L16.395 22.8111L14.3877 24.1496L16.1915 26.8547ZM18.1991 25.516C18.0061 25.6447 17.7794 25.7134 17.5475 25.7134V22.4621C17.1371 22.4621 16.736 22.5836 16.3946 22.8114L18.1991 25.516ZM17.5475 25.7134C17.3155 25.7134 17.0888 25.6447 16.8959 25.516L18.7003 22.8114C18.359 22.5836 17.9578 22.4621 17.5475 22.4621V25.7134ZM16.8961 25.5161L18.9028 26.8546L20.7069 24.1497L18.7001 22.8112L16.8961 25.5161ZM21.4305 25.5021V21.8959H18.1792V25.5021H21.4305ZM17.547 10.7213C16.9184 10.7213 16.296 10.8451 15.7152 11.0857L16.9595 14.0895C17.1457 14.0123 17.3454 13.9726 17.547 13.9726V10.7213ZM15.7152 11.0857C15.1345 11.3262 14.6068 11.6788 14.1623 12.1233L16.4614 14.4223C16.6039 14.2797 16.7732 14.1666 16.9595 14.0895L15.7152 11.0857ZM14.1623 12.1233C13.7179 12.5678 13.3653 13.0954 13.1247 13.6762L16.1285 14.9204C16.2057 14.7341 16.3188 14.5649 16.4614 14.4223L14.1623 12.1233ZM13.1247 13.6762C12.8842 14.2569 12.7604 14.8794 12.7604 15.508H16.0117C16.0117 15.3063 16.0514 15.1067 16.1285 14.9204L13.1247 13.6762ZM12.7604 15.508C12.7604 16.1365 12.8842 16.759 13.1247 17.3397L16.1285 16.0955C16.0514 15.9092 16.0117 15.7096 16.0117 15.508H12.7604ZM13.1247 17.3397C13.3653 17.9205 13.7179 18.4482 14.1623 18.8926L16.4614 16.5936C16.3188 16.451 16.2057 16.2818 16.1285 16.0955L13.1247 17.3397ZM14.1623 18.8926C14.6068 19.3371 15.1345 19.6897 15.7152 19.9303L16.9595 16.9264C16.7732 16.8493 16.6039 16.7362 16.4614 16.5936L14.1623 18.8926ZM15.7152 19.9303C16.296 20.1708 16.9184 20.2946 17.547 20.2946V17.0433C17.3454 17.0433 17.1457 17.0036 16.9595 16.9264L15.7152 19.9303ZM17.547 20.2946C18.8165 20.2946 20.034 19.7903 20.9317 18.8926L18.6327 16.5936C18.3447 16.8815 17.9542 17.0433 17.547 17.0433V20.2946ZM20.9317 18.8926C21.8294 17.995 22.3337 16.7775 22.3337 15.508H19.0824C19.0824 15.9152 18.9206 16.3057 18.6327 16.5936L20.9317 18.8926ZM22.3337 15.508C22.3337 14.2385 21.8294 13.0209 20.9317 12.1233L18.6327 14.4223C18.9206 14.7102 19.0824 15.1008 19.0824 15.508H22.3337ZM20.9317 12.1233C20.034 11.2256 18.8165 10.7213 17.547 10.7213V13.9726C17.9542 13.9726 18.3447 14.1344 18.6327 14.4223L20.9317 12.1233ZM15.1085 15.508C15.1085 14.8612 15.3654 14.241 15.8227 13.7837L13.5237 11.4847C12.4567 12.5517 11.8572 13.9989 11.8572 15.508H15.1085ZM15.8227 13.7837C16.2801 13.3264 16.9003 13.0695 17.547 13.0695V9.81815C16.038 9.81815 14.5908 10.4176 13.5237 11.4847L15.8227 13.7837ZM17.547 13.0695C18.1937 13.0695 18.814 13.3264 19.2713 13.7837L21.5703 11.4847C20.5033 10.4176 19.056 9.81815 17.547 9.81815V13.0695ZM19.2713 13.7837C19.7286 14.241 19.9855 14.8612 19.9855 15.508H23.2368C23.2368 13.9989 22.6374 12.5517 21.5703 11.4847L19.2713 13.7837ZM19.9855 15.508C19.9855 16.1547 19.7286 16.7749 19.2713 17.2322L21.5703 19.5313C22.6374 18.4642 23.2368 17.017 23.2368 15.508H19.9855ZM19.2713 17.2322C18.814 17.6895 18.1937 17.9464 17.547 17.9464V21.1978C19.056 21.1978 20.5033 20.5983 21.5703 19.5313L19.2713 17.2322ZM17.547 17.9464C16.9003 17.9464 16.2801 17.6895 15.8227 17.2322L13.5237 19.5313C14.5908 20.5983 16.038 21.1978 17.547 21.1978V17.9464ZM15.8227 17.2322C15.3654 16.7749 15.1085 16.1547 15.1085 15.508H11.8572C11.8572 17.017 12.4567 18.4642 13.5237 19.5313L15.8227 17.2322Z" fill="#3636F0" mask="url(#path-2-inside-1_6_509298)"/>
</svg>
